<svg width="194" height="219" viewBox="0 0 194 219" fill="none" xmlns="http://www.w3.org/2000/svg">
<rect x="175" y="23" width="19" height="20" rx="5" fill="#111949"/>
<rect x="175" y="46" width="19" height="20" rx="5" fill="black"/>
<rect x="175" y="69" width="19" height="20" rx="5" fill="#2365D2"/>
<rect x="31.5" y="2.5" width="145" height="214" rx="9.5" fill="#111949" stroke="black" stroke-width="5"/>
<path d="M167 38.1422V23C167 16.3726 161.627 11 155 11H54.4072C47.7797 11 42.4072 16.3726 42.4072 23V196C42.4072 202.627 47.7798 208 54.4072 208H155C161.627 208 167 202.627 167 196V91.1133" stroke="#2365D2" stroke-width="11"/>
<path d="M34.4072 60.1422H18C11.3726 60.1422 6 65.5148 6 72.1422V75.7222C6 82.3496 11.3726 87.7222 18 87.7222H34.4072M34.4072 115.302H6M34.4072 142.444H18C11.3726 142.444 6 147.817 6 154.444V157.587C6 164.214 11.3726 169.587 18 169.587H34.4072M34.4072 197.167H6M34.4072 33H6" stroke="#111949" stroke-width="11"/>
</svg>
